<mxfile host="app.diagrams.net" modified="2024-03-28T03:06:47.586Z" agent="Mozilla/5.0 (Macintosh; Intel Mac OS X 10_15_7) AppleWebKit/537.36 (KHTML, like Gecko) Chrome/123.0.0.0 Safari/537.36" etag="KG3dnPjnOMlXoPxqh64L" version="24.2.0" type="github">
  <diagram id="C5RBs43oDa-KdzZeNtuy" name="Page-1">
    <mxGraphModel dx="1068" dy="606" grid="1" gridSize="10" guides="1" tooltips="1" connect="1" arrows="1" fold="1" page="1" pageScale="1" pageWidth="827" pageHeight="1169" math="0" shadow="0">
      <root>
        <mxCell id="WIyWlLk6GJQsqaUBKTNV-0" />
        <mxCell id="WIyWlLk6GJQsqaUBKTNV-1" parent="WIyWlLk6GJQsqaUBKTNV-0" />
        <mxCell id="3DFPzXDgEYmW15P_XWXH-14" style="edgeStyle=orthogonalEdgeStyle;rounded=0;orthogonalLoop=1;jettySize=auto;html=1;exitX=1;exitY=0.5;exitDx=0;exitDy=0;entryX=0;entryY=0.5;entryDx=0;entryDy=0;" edge="1" parent="WIyWlLk6GJQsqaUBKTNV-1" source="AKeT4MHCHxbARzdKqN5t-0" target="AKeT4MHCHxbARzdKqN5t-8">
          <mxGeometry relative="1" as="geometry" />
        </mxCell>
        <mxCell id="AKeT4MHCHxbARzdKqN5t-0" value="Load software" style="rounded=0;whiteSpace=wrap;html=1;" parent="WIyWlLk6GJQsqaUBKTNV-1" vertex="1">
          <mxGeometry x="110" y="10" width="120" height="60" as="geometry" />
        </mxCell>
        <mxCell id="3DFPzXDgEYmW15P_XWXH-10" style="edgeStyle=orthogonalEdgeStyle;rounded=0;orthogonalLoop=1;jettySize=auto;html=1;exitX=0.25;exitY=1;exitDx=0;exitDy=0;" edge="1" parent="WIyWlLk6GJQsqaUBKTNV-1" source="AKeT4MHCHxbARzdKqN5t-8" target="AKeT4MHCHxbARzdKqN5t-24">
          <mxGeometry relative="1" as="geometry" />
        </mxCell>
        <mxCell id="3DFPzXDgEYmW15P_XWXH-11" style="edgeStyle=orthogonalEdgeStyle;rounded=0;orthogonalLoop=1;jettySize=auto;html=1;exitX=0.75;exitY=1;exitDx=0;exitDy=0;entryX=0.5;entryY=0;entryDx=0;entryDy=0;" edge="1" parent="WIyWlLk6GJQsqaUBKTNV-1" source="AKeT4MHCHxbARzdKqN5t-8" target="AKeT4MHCHxbARzdKqN5t-27">
          <mxGeometry relative="1" as="geometry" />
        </mxCell>
        <mxCell id="AKeT4MHCHxbARzdKqN5t-8" value="User chooses &lt;br&gt;which file to open" style="shape=parallelogram;perimeter=parallelogramPerimeter;whiteSpace=wrap;html=1;fixedSize=1;" parent="WIyWlLk6GJQsqaUBKTNV-1" vertex="1">
          <mxGeometry x="270" y="10" width="130" height="60" as="geometry" />
        </mxCell>
        <mxCell id="3DFPzXDgEYmW15P_XWXH-5" style="edgeStyle=orthogonalEdgeStyle;rounded=0;orthogonalLoop=1;jettySize=auto;html=1;exitX=0.5;exitY=1;exitDx=0;exitDy=0;entryX=0.25;entryY=0;entryDx=0;entryDy=0;" edge="1" parent="WIyWlLk6GJQsqaUBKTNV-1" source="AKeT4MHCHxbARzdKqN5t-10" target="AKeT4MHCHxbARzdKqN5t-60">
          <mxGeometry relative="1" as="geometry" />
        </mxCell>
        <mxCell id="AKeT4MHCHxbARzdKqN5t-10" value="Create new resume" style="rounded=0;whiteSpace=wrap;html=1;" parent="WIyWlLk6GJQsqaUBKTNV-1" vertex="1">
          <mxGeometry x="40" y="220" width="120" height="60" as="geometry" />
        </mxCell>
        <mxCell id="AKeT4MHCHxbARzdKqN5t-19" value="Create new module" style="rounded=0;whiteSpace=wrap;html=1;" parent="WIyWlLk6GJQsqaUBKTNV-1" vertex="1">
          <mxGeometry x="510" y="220" width="120" height="60" as="geometry" />
        </mxCell>
        <mxCell id="AKeT4MHCHxbARzdKqN5t-22" value="" style="endArrow=classic;html=1;rounded=0;exitX=0.5;exitY=1;exitDx=0;exitDy=0;entryX=0.5;entryY=0;entryDx=0;entryDy=0;" parent="WIyWlLk6GJQsqaUBKTNV-1" source="AKeT4MHCHxbARzdKqN5t-19" edge="1" target="AKeT4MHCHxbARzdKqN5t-23">
          <mxGeometry width="50" height="50" relative="1" as="geometry">
            <mxPoint x="620" y="290" as="sourcePoint" />
            <mxPoint x="550" y="300" as="targetPoint" />
          </mxGeometry>
        </mxCell>
        <mxCell id="3DFPzXDgEYmW15P_XWXH-16" style="edgeStyle=orthogonalEdgeStyle;rounded=0;orthogonalLoop=1;jettySize=auto;html=1;exitX=0.5;exitY=1;exitDx=0;exitDy=0;entryX=0.5;entryY=0;entryDx=0;entryDy=0;" edge="1" parent="WIyWlLk6GJQsqaUBKTNV-1" source="AKeT4MHCHxbARzdKqN5t-23" target="AKeT4MHCHxbARzdKqN5t-59">
          <mxGeometry relative="1" as="geometry" />
        </mxCell>
        <mxCell id="AKeT4MHCHxbARzdKqN5t-23" value="Choose module type (text / list / customized)" style="rounded=0;whiteSpace=wrap;html=1;" parent="WIyWlLk6GJQsqaUBKTNV-1" vertex="1">
          <mxGeometry x="510" y="300" width="120" height="60" as="geometry" />
        </mxCell>
        <mxCell id="3DFPzXDgEYmW15P_XWXH-7" style="edgeStyle=orthogonalEdgeStyle;rounded=0;orthogonalLoop=1;jettySize=auto;html=1;exitX=0.25;exitY=1;exitDx=0;exitDy=0;entryX=0.5;entryY=0;entryDx=0;entryDy=0;" edge="1" parent="WIyWlLk6GJQsqaUBKTNV-1" source="AKeT4MHCHxbARzdKqN5t-24" target="AKeT4MHCHxbARzdKqN5t-10">
          <mxGeometry relative="1" as="geometry" />
        </mxCell>
        <mxCell id="AKeT4MHCHxbARzdKqN5t-24" value="Edit resume" style="rounded=0;whiteSpace=wrap;html=1;" parent="WIyWlLk6GJQsqaUBKTNV-1" vertex="1">
          <mxGeometry x="150" y="110" width="120" height="60" as="geometry" />
        </mxCell>
        <mxCell id="3DFPzXDgEYmW15P_XWXH-8" style="edgeStyle=orthogonalEdgeStyle;rounded=0;orthogonalLoop=1;jettySize=auto;html=1;exitX=0.75;exitY=1;exitDx=0;exitDy=0;entryX=0.5;entryY=0;entryDx=0;entryDy=0;" edge="1" parent="WIyWlLk6GJQsqaUBKTNV-1" source="AKeT4MHCHxbARzdKqN5t-27" target="AKeT4MHCHxbARzdKqN5t-19">
          <mxGeometry relative="1" as="geometry" />
        </mxCell>
        <mxCell id="AKeT4MHCHxbARzdKqN5t-27" value="Edit module" style="rounded=0;whiteSpace=wrap;html=1;" parent="WIyWlLk6GJQsqaUBKTNV-1" vertex="1">
          <mxGeometry x="400" y="110" width="120" height="60" as="geometry" />
        </mxCell>
        <mxCell id="AKeT4MHCHxbARzdKqN5t-33" value="" style="endArrow=classic;html=1;rounded=0;exitX=0.25;exitY=1;exitDx=0;exitDy=0;" parent="WIyWlLk6GJQsqaUBKTNV-1" source="AKeT4MHCHxbARzdKqN5t-27" edge="1">
          <mxGeometry width="50" height="50" relative="1" as="geometry">
            <mxPoint x="460" y="170" as="sourcePoint" />
            <mxPoint x="430" y="220" as="targetPoint" />
          </mxGeometry>
        </mxCell>
        <mxCell id="AKeT4MHCHxbARzdKqN5t-34" value="" style="endArrow=classic;html=1;rounded=0;exitX=0.75;exitY=1;exitDx=0;exitDy=0;entryX=0.5;entryY=0;entryDx=0;entryDy=0;" parent="WIyWlLk6GJQsqaUBKTNV-1" source="AKeT4MHCHxbARzdKqN5t-24" target="3DFPzXDgEYmW15P_XWXH-2" edge="1">
          <mxGeometry width="50" height="50" relative="1" as="geometry">
            <mxPoint x="420" y="180" as="sourcePoint" />
            <mxPoint x="240" y="210" as="targetPoint" />
          </mxGeometry>
        </mxCell>
        <mxCell id="AKeT4MHCHxbARzdKqN5t-39" style="edgeStyle=orthogonalEdgeStyle;rounded=0;orthogonalLoop=1;jettySize=auto;html=1;exitX=1;exitY=0.25;exitDx=0;exitDy=0;entryX=0;entryY=0.5;entryDx=0;entryDy=0;" parent="WIyWlLk6GJQsqaUBKTNV-1" target="AKeT4MHCHxbARzdKqN5t-27" edge="1">
          <mxGeometry relative="1" as="geometry">
            <mxPoint x="300" y="405" as="sourcePoint" />
          </mxGeometry>
        </mxCell>
        <mxCell id="AKeT4MHCHxbARzdKqN5t-40" value="" style="endArrow=classic;html=1;rounded=0;exitX=0.5;exitY=1;exitDx=0;exitDy=0;" parent="WIyWlLk6GJQsqaUBKTNV-1" edge="1">
          <mxGeometry width="50" height="50" relative="1" as="geometry">
            <mxPoint x="240" y="460" as="sourcePoint" />
            <mxPoint x="240" y="490" as="targetPoint" />
          </mxGeometry>
        </mxCell>
        <mxCell id="AKeT4MHCHxbARzdKqN5t-50" style="edgeStyle=orthogonalEdgeStyle;rounded=0;orthogonalLoop=1;jettySize=auto;html=1;exitX=0.5;exitY=1;exitDx=0;exitDy=0;" parent="WIyWlLk6GJQsqaUBKTNV-1" source="AKeT4MHCHxbARzdKqN5t-41" target="AKeT4MHCHxbARzdKqN5t-49" edge="1">
          <mxGeometry relative="1" as="geometry" />
        </mxCell>
        <mxCell id="AKeT4MHCHxbARzdKqN5t-41" value="Insert module content into resume" style="rounded=0;whiteSpace=wrap;html=1;" parent="WIyWlLk6GJQsqaUBKTNV-1" vertex="1">
          <mxGeometry x="180" y="490" width="120" height="60" as="geometry" />
        </mxCell>
        <mxCell id="AKeT4MHCHxbARzdKqN5t-47" style="edgeStyle=orthogonalEdgeStyle;rounded=0;orthogonalLoop=1;jettySize=auto;html=1;exitX=0.5;exitY=1;exitDx=0;exitDy=0;entryX=0.5;entryY=0;entryDx=0;entryDy=0;entryPerimeter=0;" parent="WIyWlLk6GJQsqaUBKTNV-1" target="AKeT4MHCHxbARzdKqN5t-46" edge="1">
          <mxGeometry relative="1" as="geometry">
            <mxPoint x="430" y="460" as="sourcePoint" />
          </mxGeometry>
        </mxCell>
        <mxCell id="AKeT4MHCHxbARzdKqN5t-61" style="edgeStyle=orthogonalEdgeStyle;rounded=0;orthogonalLoop=1;jettySize=auto;html=1;exitX=0;exitY=0.5;exitDx=0;exitDy=0;exitPerimeter=0;entryX=1;entryY=0.5;entryDx=0;entryDy=0;" parent="WIyWlLk6GJQsqaUBKTNV-1" source="AKeT4MHCHxbARzdKqN5t-46" target="AKeT4MHCHxbARzdKqN5t-60" edge="1">
          <mxGeometry relative="1" as="geometry">
            <Array as="points">
              <mxPoint x="330" y="520" />
              <mxPoint x="330" y="430" />
            </Array>
          </mxGeometry>
        </mxCell>
        <mxCell id="AKeT4MHCHxbARzdKqN5t-46" value="Save module" style="shape=cylinder3;whiteSpace=wrap;html=1;boundedLbl=1;backgroundOutline=1;size=15;" parent="WIyWlLk6GJQsqaUBKTNV-1" vertex="1">
          <mxGeometry x="370" y="480" width="120" height="80" as="geometry" />
        </mxCell>
        <mxCell id="AKeT4MHCHxbARzdKqN5t-51" style="edgeStyle=orthogonalEdgeStyle;rounded=0;orthogonalLoop=1;jettySize=auto;html=1;exitX=0;exitY=0.25;exitDx=0;exitDy=0;entryX=0;entryY=0.5;entryDx=0;entryDy=0;" parent="WIyWlLk6GJQsqaUBKTNV-1" source="AKeT4MHCHxbARzdKqN5t-49" target="AKeT4MHCHxbARzdKqN5t-60" edge="1">
          <mxGeometry relative="1" as="geometry">
            <mxPoint x="180" y="430" as="targetPoint" />
            <Array as="points">
              <mxPoint x="180" y="610" />
              <mxPoint x="160" y="610" />
              <mxPoint x="160" y="430" />
            </Array>
          </mxGeometry>
        </mxCell>
        <mxCell id="AKeT4MHCHxbARzdKqN5t-58" style="edgeStyle=orthogonalEdgeStyle;rounded=0;orthogonalLoop=1;jettySize=auto;html=1;exitX=1;exitY=0.5;exitDx=0;exitDy=0;" parent="WIyWlLk6GJQsqaUBKTNV-1" source="AKeT4MHCHxbARzdKqN5t-49" target="AKeT4MHCHxbARzdKqN5t-54" edge="1">
          <mxGeometry relative="1" as="geometry" />
        </mxCell>
        <mxCell id="AKeT4MHCHxbARzdKqN5t-49" value="Adjust the design of the module on the resume" style="rounded=0;whiteSpace=wrap;html=1;" parent="WIyWlLk6GJQsqaUBKTNV-1" vertex="1">
          <mxGeometry x="180" y="580" width="120" height="60" as="geometry" />
        </mxCell>
        <mxCell id="AKeT4MHCHxbARzdKqN5t-66" style="edgeStyle=orthogonalEdgeStyle;rounded=0;orthogonalLoop=1;jettySize=auto;html=1;exitX=1;exitY=0.5;exitDx=0;exitDy=0;exitPerimeter=0;entryX=0;entryY=0;entryDx=0;entryDy=30;entryPerimeter=0;" parent="WIyWlLk6GJQsqaUBKTNV-1" source="AKeT4MHCHxbARzdKqN5t-54" target="AKeT4MHCHxbARzdKqN5t-64" edge="1">
          <mxGeometry relative="1" as="geometry" />
        </mxCell>
        <mxCell id="AKeT4MHCHxbARzdKqN5t-54" value="Save resume (or save as)" style="shape=cylinder3;whiteSpace=wrap;html=1;boundedLbl=1;backgroundOutline=1;size=15;" parent="WIyWlLk6GJQsqaUBKTNV-1" vertex="1">
          <mxGeometry x="367.5" y="570" width="122.5" height="80" as="geometry" />
        </mxCell>
        <mxCell id="AKeT4MHCHxbARzdKqN5t-59" value="User edits module content" style="shape=parallelogram;perimeter=parallelogramPerimeter;whiteSpace=wrap;html=1;fixedSize=1;" parent="WIyWlLk6GJQsqaUBKTNV-1" vertex="1">
          <mxGeometry x="362.75" y="400" width="132" height="60" as="geometry" />
        </mxCell>
        <mxCell id="AKeT4MHCHxbARzdKqN5t-60" value="User chooses module" style="shape=parallelogram;perimeter=parallelogramPerimeter;whiteSpace=wrap;html=1;fixedSize=1;" parent="WIyWlLk6GJQsqaUBKTNV-1" vertex="1">
          <mxGeometry x="175" y="400" width="130" height="60" as="geometry" />
        </mxCell>
        <mxCell id="AKeT4MHCHxbARzdKqN5t-64" value="Export as PDF" style="shape=card;whiteSpace=wrap;html=1;rotation=0;" parent="WIyWlLk6GJQsqaUBKTNV-1" vertex="1">
          <mxGeometry x="530" y="580" width="120" height="70" as="geometry" />
        </mxCell>
        <mxCell id="3DFPzXDgEYmW15P_XWXH-6" style="edgeStyle=orthogonalEdgeStyle;rounded=0;orthogonalLoop=1;jettySize=auto;html=1;exitX=0.5;exitY=1;exitDx=0;exitDy=0;entryX=0.5;entryY=0;entryDx=0;entryDy=0;" edge="1" parent="WIyWlLk6GJQsqaUBKTNV-1" source="3DFPzXDgEYmW15P_XWXH-2" target="AKeT4MHCHxbARzdKqN5t-60">
          <mxGeometry relative="1" as="geometry" />
        </mxCell>
        <mxCell id="3DFPzXDgEYmW15P_XWXH-2" value="User chooses an existing resume to open" style="shape=parallelogram;perimeter=parallelogramPerimeter;whiteSpace=wrap;html=1;fixedSize=1;" vertex="1" parent="WIyWlLk6GJQsqaUBKTNV-1">
          <mxGeometry x="175" y="220" width="130" height="60" as="geometry" />
        </mxCell>
        <mxCell id="3DFPzXDgEYmW15P_XWXH-3" value="User chooses an existing module to open" style="shape=parallelogram;perimeter=parallelogramPerimeter;whiteSpace=wrap;html=1;fixedSize=1;" vertex="1" parent="WIyWlLk6GJQsqaUBKTNV-1">
          <mxGeometry x="364.75" y="220" width="130" height="60" as="geometry" />
        </mxCell>
      </root>
    </mxGraphModel>
  </diagram>
</mxfile>
